# xmcd
#
# Track frame offsets: 
#        150
#        10997
#        22067
#        33327
#        43995
#        56295
#        68050
#        78362
#        87027
#        98997
#        109072
#        118305
#        129795
#        139535
#        150622
#        161727
#        170535
#        180100
#        194745
#        215040
#        226840
#        241622
#        250655
#        263312
#        276072
#
# Disc length: 3817 seconds
#
# Revision: 6
# Processed by: cddbd v1.5.2PL0 Copyright (c) Steve Scherf et al.
# Submitted via: ExactAudioCopyFreeDBPlugin 1.0
#
DISCID=440ee719
DTITLE=Various Artist - The Spirit of New Orleans:  The Genius of Dav
DTITLE=e Bartholomew
DYEAR=1992
DGENRE=Rhythm and Blues
TTITLE0=Dave Bartholomew - Jump Children
TTITLE1=The Hawks featuring Dave Bartholomew - Can't See for Lookin'
TTITLE2=Little Booker - Doin' the Hambone
TTITLE3=The Bees - Toy Bell
TTITLE4=Smiley Lewis - I Hear You Knockin'
TTITLE5=The Spiders - Witchcraft
TTITLE6=Bobby Mitchell and The Toppers - Nothing as Sweet as You
TTITLE7=Fats Domino - Valley of Tears
TTITLE8=Al Reed - Hoo Doo
TTITLE9=James "Sugarboy" Crawford - Morning Star
TTITLE10=Roy Brown - Let the Four Winds Blow
TTITLE11=Chris Kenner - Sick and Tired
TTITLE12=Dave Bartholomew - Good News
TTITLE13=Bobby Mitchell - I'm Gonna Be a Wheel Someday
TTITLE14=Smiley Lewis - One Night
TTITLE15=Fats Domino - Young School Girl
TTITLE16=James "Sugarboy" Crawford - She's Got a Wobble (When She Walk
TTITLE16=s)
TTITLE17=Berna-Dean - I Walk in My Sleep
TTITLE18=Earl King - Come On  (Parts 1 and 2)
TTITLE19=Al Robinson - I Wanna Know
TTITLE20=Ford "Little Snook" Eaglin - That Certain Door
TTITLE21=Fats Domino - Walking to New Orleans (undubbed)
TTITLE22=Berna-Dean - Little Willie
TTITLE23=Earl King - Trick Bag
TTITLE24=Al Robinson - They Said it Couldn't Be Done
EXTD=
EXTT0=
EXTT1=
EXTT2=
EXTT3=
EXTT4=
EXTT5=
EXTT6=
EXTT7=
EXTT8=
EXTT9=
EXTT10=
EXTT11=
EXTT12=
EXTT13=
EXTT14=
EXTT15=
EXTT16=
EXTT17=
EXTT18=
EXTT19=
EXTT20=
EXTT21=
EXTT22=
EXTT23=
EXTT24=
PLAYORDER=
